<?xml version="1.0" standalone="no"?>
<!DOCTYPE svg PUBLIC "-//W3C//DTD SVG 20010904//EN"
 "http://www.w3.org/TR/2001/REC-SVG-20010904/DTD/svg10.dtd">
<svg version="1.0" xmlns="http://www.w3.org/2000/svg"
 width="236.000000pt" height="236.000000pt" viewBox="0 0 236.000000 236.000000"
 preserveAspectRatio="xMidYMid meet">
<metadata>
Created by potrace 1.11, written by Peter Selinger 2001-2013
</metadata>
<g transform="translate(0.000000,236.000000) scale(0.100000,-0.100000)"
fill="#000000" stroke="none">
<path d="M335 2352 c-27 -6 -65 -31 -100 -67 -65 -66 -60 25 -63 -1174 -1
-602 1 -1098 5 -1102 5 -4 80 10 168 32 88 21 169 41 180 43 11 2 40 9 65 16
25 7 52 13 60 15 71 14 67 7 67 118 1 56 1 107 2 113 1 10 42 23 156 49 11 3
67 16 125 31 58 14 112 27 120 29 8 2 101 24 205 50 105 26 199 48 210 51 18
3 354 85 415 101 14 3 32 8 41 9 41 8 107 45 141 78 66 66 64 41 66 868 l1
747 -922 -1 c-507 -1 -931 -3 -942 -6z m1315 -542 c1 -8 2 -602 1 -637 -1 -33
-6 -36 -67 -48 -10 -2 -19 -4 -19 -5 0 -1 -9 -3 -20 -5 -11 -2 -38 -9 -60 -14
-65 -17 -248 -61 -270 -65 -11 -2 -38 -9 -60 -15 -22 -6 -51 -12 -65 -15 -14
-2 -25 -5 -25 -6 0 -1 -9 -3 -21 -5 -11 -3 -87 -20 -168 -40 -82 -20 -151 -33
-154 -30 -8 8 -9 857 -1 875 6 13 68 15 468 15 254 0 461 -2 461 -5z"/>
</g>
</svg>
